<svg width="35" height="35" viewBox="0 0 35 35" fill="none" xmlns="http://www.w3.org/2000/svg">
<path d="M27.3363 22.504C27.3121 22.4491 27.2895 22.4035 27.2685 22.367C26.9215 21.7098 26.2584 20.9032 25.2796 19.9468L25.2589 19.9249L25.2486 19.9141L25.2381 19.9031H25.2276C24.7833 19.4578 24.502 19.1583 24.3842 19.005C24.1687 18.713 24.1204 18.4174 24.2382 18.1179C24.3214 17.8916 24.6341 17.4137 25.1754 16.6835C25.4601 16.2965 25.6856 15.9864 25.8522 15.7527C27.0533 14.0735 27.574 13.0005 27.4142 12.5332L27.3522 12.424C27.3105 12.3583 27.2029 12.2981 27.0295 12.2433C26.8558 12.1886 26.6337 12.1795 26.3629 12.216L23.364 12.2378C23.3154 12.2197 23.246 12.2214 23.1557 12.2433C23.0654 12.2652 23.0202 12.2762 23.0202 12.2762L22.968 12.3037L22.9266 12.3366C22.8919 12.3584 22.8537 12.3967 22.812 12.4515C22.7705 12.5061 22.7359 12.5701 22.7081 12.6431C22.3816 13.5265 22.0104 14.3478 21.5939 15.107C21.337 15.5597 21.1011 15.952 20.8857 16.2842C20.6705 16.6163 20.49 16.861 20.3443 17.0178C20.1984 17.1748 20.0668 17.3006 19.9485 17.3956C19.8305 17.4906 19.7404 17.5308 19.6779 17.5161C19.6154 17.5014 19.5565 17.4868 19.5007 17.4722C19.4036 17.4065 19.3255 17.3171 19.2666 17.2039C19.2074 17.0908 19.1676 16.9484 19.1468 16.7768C19.126 16.6051 19.1138 16.4575 19.1103 16.3333C19.107 16.2093 19.1085 16.0339 19.1156 15.8076C19.1228 15.5812 19.126 15.428 19.126 15.3477C19.126 15.0702 19.1312 14.7691 19.1415 14.4442C19.152 14.1194 19.1605 13.862 19.1676 13.6723C19.1747 13.4825 19.178 13.2817 19.178 13.07C19.178 12.8582 19.1657 12.6922 19.1415 12.5717C19.1176 12.4513 19.0809 12.3345 19.0325 12.2212C18.9838 12.1081 18.9125 12.0206 18.819 11.9584C18.7253 11.8964 18.6088 11.8471 18.4702 11.8105C18.1022 11.723 17.6336 11.6756 17.0642 11.6682C15.7731 11.6537 14.9434 11.7413 14.5755 11.9312C14.4297 12.0114 14.2978 12.1209 14.1798 12.2596C14.0548 12.4202 14.0374 12.5079 14.1276 12.5223C14.5442 12.588 14.8391 12.7449 15.0127 12.9931L15.0753 13.1247C15.1239 13.2196 15.1725 13.3875 15.2211 13.6284C15.2697 13.8693 15.301 14.1357 15.3148 14.4276C15.3494 14.9606 15.3494 15.4169 15.3148 15.7965C15.28 16.1762 15.2472 16.4718 15.2159 16.6835C15.1845 16.8953 15.1377 17.0668 15.0753 17.1982C15.0127 17.3296 14.9711 17.4099 14.9502 17.4391C14.9294 17.4682 14.912 17.4866 14.8983 17.4938C14.808 17.5302 14.7142 17.5487 14.6171 17.5487C14.5198 17.5487 14.4018 17.4975 14.263 17.3953C14.1242 17.293 13.9802 17.1525 13.8309 16.9737C13.6816 16.7947 13.5133 16.5447 13.3258 16.2235C13.1384 15.9023 12.944 15.5227 12.7427 15.0847L12.5761 14.767C12.472 14.5627 12.3298 14.2651 12.1493 13.8746C11.9687 13.484 11.809 13.1061 11.6702 12.7411C11.6148 12.5878 11.5314 12.471 11.4204 12.3907L11.3682 12.3578C11.3336 12.3286 11.278 12.2977 11.2017 12.2647C11.1253 12.2317 11.0455 12.2081 10.9622 12.1936L8.10895 12.2154C7.81739 12.2154 7.61957 12.2848 7.5154 12.4236L7.47371 12.4892C7.45289 12.5257 7.44238 12.5841 7.44238 12.6645C7.44238 12.7448 7.46321 12.8434 7.5049 12.9601C7.92141 13.9895 8.37436 14.9824 8.86375 15.9387C9.35314 16.8951 9.77841 17.6654 10.1393 18.2491C10.5003 18.8332 10.8682 19.3845 11.2431 19.9027C11.618 20.4211 11.8662 20.7533 11.9876 20.8992C12.1091 21.0454 12.2046 21.1547 12.274 21.2277L12.5344 21.4905C12.701 21.6657 12.9457 21.8756 13.2685 22.1201C13.5914 22.3648 13.9488 22.6056 14.3411 22.8431C14.7334 23.0802 15.1898 23.2736 15.7105 23.4233C16.2311 23.573 16.7379 23.6332 17.2308 23.6042H18.4284C18.6712 23.5821 18.8552 23.5018 18.9803 23.3632L19.0217 23.3083C19.0496 23.2647 19.0757 23.1971 19.0997 23.1059C19.1241 23.0147 19.1362 22.9142 19.1362 22.8048C19.1291 22.4909 19.1518 22.208 19.2038 21.9562C19.2557 21.7045 19.3148 21.5147 19.381 21.3868C19.4471 21.2591 19.5217 21.1513 19.6048 21.0639C19.688 20.9764 19.7473 20.9233 19.7821 20.9051C19.8167 20.8867 19.8443 20.8742 19.8651 20.8668C20.0317 20.8084 20.2278 20.8649 20.4536 21.0366C20.6793 21.2082 20.891 21.42 21.0889 21.6718C21.2868 21.9238 21.5245 22.2066 21.8021 22.5204C22.08 22.8344 22.3228 23.0677 22.5309 23.2213L22.7391 23.3527C22.8782 23.4403 23.0587 23.5207 23.2809 23.5936C23.5027 23.6666 23.697 23.6849 23.8638 23.6484L26.5295 23.6047C26.7932 23.6047 26.9983 23.5587 27.1438 23.4677C27.2897 23.3764 27.3763 23.2758 27.4042 23.1666C27.4321 23.0571 27.4336 22.9329 27.4095 22.794C27.3848 22.6555 27.3605 22.5586 27.3363 22.504Z" fill="white"/>
<path d="M34.2302 17.5C34.2302 26.8925 26.6758 34.5 17.3651 34.5C8.0544 34.5 0.5 26.8925 0.5 17.5C0.5 8.1075 8.0544 0.5 17.3651 0.5C26.6758 0.5 34.2302 8.1075 34.2302 17.5Z" stroke="white"/>
</svg>
