<svg width="100" height="100" viewBox="0 0 100 100" fill="none" xmlns="http://www.w3.org/2000/svg">
<g clip-path="url(#clip0)">
<path d="M87.6183 35.5073H79.4886C78.6784 35.5073 78.0215 36.164 78.0215 36.9744C78.0215 37.7848 78.6784 38.4415 79.4886 38.4415H87.6183C88.1735 38.4415 88.6254 38.8934 88.6254 39.4486V52.3465C88.6254 53.1569 89.2823 53.8136 90.0925 53.8136C90.9028 53.8136 91.5596 53.1569 91.5596 52.3465V39.4486C91.5596 37.2753 89.7916 35.5073 87.6183 35.5073Z" fill="#024999"/>
<path d="M9.90757 83.0925C10.7178 83.0925 11.3747 82.4359 11.3747 81.6254V39.4486C11.3747 38.8932 11.8266 38.4415 12.3817 38.4415H20.5114C21.3217 38.4415 21.9786 37.7848 21.9786 36.9744C21.9786 36.164 21.3217 35.5073 20.5114 35.5073H12.3817C10.2084 35.5073 8.44043 37.2753 8.44043 39.4486V81.6252C8.44043 82.4357 9.09712 83.0925 9.90757 83.0925Z" fill="#024999"/>
<path d="M90.0924 57.1319C89.2822 57.1319 88.6253 57.7886 88.6253 58.599V96.0589C88.6253 96.6141 88.1734 97.0658 87.6182 97.0658H58.199V86.1581C58.199 85.4382 57.8518 84.7551 57.2702 84.331C56.6887 83.9069 55.9322 83.7853 55.247 84.005L50.0001 85.689L44.7532 84.005C44.068 83.7853 43.3115 83.9068 42.7299 84.331C42.1484 84.7551 41.8011 85.4382 41.8011 86.1581V97.0658H12.3817C11.8266 97.0658 11.3747 96.6139 11.3747 96.0589V87.8778C11.3747 87.0674 10.7178 86.4107 9.90757 86.4107C9.09732 86.4107 8.44043 87.0674 8.44043 87.8778V96.0589C8.44043 98.2321 10.2086 100 12.3817 100H87.6182C89.7914 100 91.5596 98.2321 91.5596 96.0589V58.599C91.5596 57.7886 90.9027 57.1319 90.0924 57.1319ZM44.7352 97.0658V87.0809L49.3092 88.549C49.761 88.6939 50.2387 88.6939 50.6908 88.549L55.2646 87.0809V97.0658H44.7352Z" fill="#024999"/>
<path d="M23.8935 50.368H25.0474C25.8577 50.368 26.5146 49.7113 26.5146 48.9009C26.5146 48.0904 25.8577 47.4337 25.0474 47.4337H23.8935C21.7203 47.4337 19.9521 49.2017 19.9521 51.3748V76.1192C19.9521 78.2923 21.7203 80.0603 23.8935 80.0603H76.1063C78.2794 80.0603 80.0476 78.2923 80.0476 76.1192V51.3748C80.0476 49.2017 78.2794 47.4337 76.1063 47.4337H74.9524C74.1421 47.4337 73.4852 48.0904 73.4852 48.9009C73.4852 49.7113 74.1421 50.368 74.9524 50.368H76.1063C76.6615 50.368 77.1133 50.8199 77.1133 51.3748V76.1192C77.1133 76.6743 76.6615 77.126 76.1063 77.126H23.8935C23.3383 77.126 22.8864 76.6741 22.8864 76.1192V51.3748C22.8864 50.8197 23.3383 50.368 23.8935 50.368Z" fill="#024999"/>
<path d="M66.2873 10.6667C67.7431 11.0906 69.2059 11.4554 70.6351 11.7512L73.2617 12.2907V18.1544C73.2617 18.9648 73.9186 19.6215 74.7288 19.6215C75.5391 19.6215 76.1959 18.9648 76.1959 18.1544V12.2905C76.1959 10.9087 75.2137 9.70212 73.8601 9.4218L71.2296 8.87759C69.8761 8.59746 68.4894 8.25161 67.1075 7.84922C66.3297 7.6225 65.5152 8.06988 65.2889 8.84766C65.0623 9.62563 65.5093 10.44 66.2873 10.6667Z" fill="#024999"/>
<path d="M31.2686 49.3686C31.5348 49.3686 31.8042 49.2962 32.0466 49.1444C32.733 48.714 32.9407 47.8085 32.5104 47.1221C28.7344 41.0988 26.7387 34.16 26.7387 27.0562L26.7348 12.2954L29.3652 11.7512C36.4869 10.2778 43.1671 7.48692 49.2201 3.45621L49.9977 2.93488L50.7805 3.45621C53.7535 5.43606 56.9343 7.14185 60.2338 8.52585C60.981 8.83942 61.8408 8.4877 62.1542 7.74044C62.4677 6.99318 62.116 6.13344 61.3688 5.82006C58.2404 4.50785 55.2252 2.89067 52.4067 1.01411L51.6236 0.492395C50.6373 -0.163904 49.3629 -0.164099 48.3762 0.492591L47.5935 1.01391C41.8551 4.83492 35.5221 7.48085 28.7706 8.87757L26.1399 9.42197C24.7864 9.7021 23.8042 10.9087 23.8042 12.2905V27.056C23.8042 34.7121 25.955 42.1896 30.0241 48.6804C30.3026 49.1248 30.7801 49.3686 31.2686 49.3686Z" fill="#024999"/>
<path d="M55.836 58.882L50.4365 62.3343C50.1714 62.5039 49.8287 62.5039 49.5635 62.3343L44.39 59.0262C43.7072 58.5894 42.8 58.7889 42.3635 59.4718C41.9271 60.1543 42.1267 61.0616 42.8092 61.498L47.9829 64.8061C48.5955 65.1982 49.2978 65.394 50.0001 65.394C50.7024 65.394 51.4048 65.198 52.0173 64.8061L57.4168 61.3539C66.4707 55.5646 72.7759 46.6037 75.1705 36.1219C75.351 35.332 74.8569 34.5454 74.067 34.365C73.2769 34.1833 72.4903 34.6786 72.31 35.4685C70.0877 45.1948 64.2372 53.51 55.836 58.882Z" fill="#024999"/>
<path d="M69.1785 14.4396C62.6443 12.9877 56.452 10.4647 50.774 6.9402C50.3 6.64599 49.7004 6.64599 49.2265 6.9402C43.5486 10.4647 37.3563 12.9877 30.8219 14.4396C30.1506 14.5889 29.6729 15.1841 29.6729 15.8717V27.0562C29.6729 32.888 31.1533 38.6742 33.954 43.7892C36.7546 48.9042 40.8319 53.2685 45.745 56.4101L49.2098 58.6255C49.4506 58.7796 49.7255 58.8567 50.0001 58.8567C50.2748 58.8567 50.5496 58.7796 50.7904 58.6255L54.2552 56.4101C59.1684 53.2685 63.2454 48.9044 66.0463 43.7892C68.847 38.6742 70.3274 32.8878 70.3274 27.0562V15.8717C70.3274 15.1839 69.8499 14.5887 69.1785 14.4396ZM67.3931 27.0562C67.3931 32.3968 66.0375 37.6957 63.4725 42.3801C60.9078 47.0642 57.1738 51.0609 52.6746 53.9381L50.0001 55.6479L47.3256 53.9381C42.8262 51.0609 39.0925 47.0642 36.5275 42.3801C33.9626 37.6957 32.6069 32.3968 32.6069 27.0562V17.0374C38.7482 15.5513 44.5897 13.1564 49.9999 9.90577C55.4101 13.1564 61.2519 15.5513 67.3929 17.0374V27.0562H67.3931Z" fill="#024999"/>
<path d="M47.4459 19.0875L46.4926 22.3483L42.3373 26.2769H39.995C39.1847 26.2769 38.5278 26.9336 38.5278 27.744C38.5278 28.5544 39.1847 29.2111 39.995 29.2111H42.921C43.296 29.2111 43.6565 29.0677 43.9288 28.8101L48.797 24.2076C48.9862 24.0288 49.1243 23.8029 49.1972 23.5531L50.2618 19.9109C50.4435 19.2892 51.0225 18.8553 51.67 18.8553C52.4791 18.8553 53.1372 19.5134 53.1372 20.3224V25.3543C53.1372 26.1648 53.7941 26.8215 54.6043 26.8215H56.065C57.4285 26.8215 58.681 27.4459 59.5014 28.5347C60.322 29.6233 60.5773 30.9997 60.2019 32.3103L58.9946 36.5245C58.4685 38.3604 56.7675 39.6425 54.8576 39.6425H47.2082C46.0257 39.6425 44.8805 39.2958 43.8966 38.6397L42.5838 37.7645C42.3428 37.6039 42.0595 37.5181 41.77 37.5181H39.9361V40.4523H41.3258L42.2688 41.081C43.7362 42.0595 45.4443 42.5767 47.2082 42.5767H54.8576C58.0695 42.5767 60.9306 40.4202 61.8154 37.3324L63.0227 33.1182C63.6544 30.9138 63.225 28.5994 61.8447 26.7683C60.466 24.9388 58.3619 23.889 56.0714 23.887V20.3222C56.0714 17.8954 54.0971 15.9208 51.67 15.9208C49.7279 15.921 47.9907 17.2231 47.4459 19.0875Z" fill="#024999"/>
<path d="M75.7231 22.9617C75.1683 23.9458 74.3076 24.7752 73.0918 25.4965C72.4684 25.8666 72.0853 26.5481 72.0924 27.2754C72.0992 28.0037 72.4957 28.6788 73.1266 29.0374C74.27 29.6872 75.111 30.5104 75.6974 31.5534C76.0554 32.1903 76.7334 32.5894 77.4668 32.5947H77.4819C78.2109 32.5947 78.8891 32.206 79.2549 31.5773C79.9476 30.3864 80.7884 29.518 81.7536 28.9963C82.3909 28.652 82.7896 28.0139 82.8199 27.2891C82.8502 26.5679 82.4932 25.8742 81.8884 25.4785C80.7559 24.7381 79.862 23.8613 79.2311 22.8729C78.8396 22.2596 78.1673 21.9073 77.4441 21.9253C76.7211 21.9452 76.0777 22.3326 75.7231 22.9617ZM77.5323 25.5117C78.0229 26.1031 78.5859 26.6547 79.2174 27.1624C78.5832 27.6569 78.0024 28.2547 77.4785 28.9519C76.9823 28.3196 76.4013 27.751 75.7385 27.2494C76.4337 26.7228 77.0329 26.1422 77.5323 25.5117Z" fill="#024999"/>
<path d="M30.6744 55.4883C30.6813 56.2166 31.0778 56.8916 31.7086 57.2502C32.852 57.9001 33.693 58.723 34.2793 59.7662C34.6372 60.4032 35.3153 60.8022 36.0486 60.8075H36.0639C36.793 60.8075 37.4712 60.4188 37.837 59.7901C38.5297 58.5992 39.3704 57.7308 40.3356 57.2091C40.9729 56.8648 41.3716 56.2267 41.4019 55.502C41.4322 54.7807 41.0752 54.0871 40.4704 53.6913C39.3379 52.9509 38.444 52.0741 37.8131 51.0857C37.4217 50.4724 36.7505 50.116 36.0261 50.1381C35.3029 50.1581 34.6595 50.5454 34.3049 51.1745C33.7501 52.1587 32.8894 52.9881 31.6736 53.7093C31.0504 54.0794 30.6674 54.7612 30.6744 55.4883ZM36.1142 53.7248C36.6048 54.3161 37.1678 54.8678 37.7992 55.3754C37.165 55.8699 36.5842 56.4677 36.0604 57.1649C35.5643 56.5327 34.9831 55.9638 34.3203 55.4625C35.0156 54.9357 35.6147 54.3553 36.1142 53.7248Z" fill="#024999"/>
</g>
<defs>
<clipPath id="clip0">
<rect width="100" height="100" fill="white"/>
</clipPath>
</defs>
</svg>
