<svg width="100" height="100" viewBox="0 0 100 100" fill="none" xmlns="http://www.w3.org/2000/svg">
<g clip-path="url(#clip0)">
<path d="M44.7999 5.3446C43.2137 5.3446 41.9233 6.63481 41.9233 8.22097V11.1596C41.9233 12.7457 43.2137 14.0359 44.7999 14.0359H55.005C56.5912 14.0359 57.8816 12.7457 57.8816 11.1596V8.22097C57.8816 6.63481 56.5912 5.3446 55.005 5.3446H44.7999ZM54.9549 11.1092H44.8497V8.27111H54.9549V11.1092Z" fill="#024999"/>
<path d="M82.1369 80.1042V75.07C82.1369 72.7458 80.246 70.8549 77.9216 70.8549H77.627V70.4526C77.627 66.2172 75.2776 62.4016 71.4953 60.4952L61.8931 55.6552C61.8129 54.6643 61.3249 53.7331 60.5043 53.0994L59.0776 51.9974C58.4294 51.4972 57.6686 51.2391 56.9034 51.2153V46.9508C57.7554 46.456 58.5606 45.8715 59.3012 45.1968C61.8771 42.8502 63.474 39.6468 63.7975 36.1771L63.8981 35.0984H64.7815C67.4177 35.0984 69.5623 32.9537 69.5623 30.3175V27.5312C69.7987 27.3061 70.0102 27.048 70.1886 26.7582C70.1886 26.7582 70.1886 26.7582 70.1886 26.7581L70.7317 25.8748C71.2909 24.9657 71.4507 23.8536 71.1699 22.8235C70.966 22.0756 70.5378 21.4107 69.9585 20.9117L69.3369 14.7461C69.0123 11.5264 67.7558 8.50249 65.7034 6.00149C65.1905 5.37678 64.2686 5.28625 63.6439 5.79859C63.0192 6.31131 62.9283 7.23336 63.441 7.85807C65.1267 9.91209 66.1586 12.3955 66.4253 15.0399L66.8502 19.2549C61.5386 16.8705 55.7328 15.6176 49.9026 15.6176C44.0724 15.6176 38.2666 16.8704 32.955 19.2549L33.3799 15.0399C34.0762 8.13394 39.8352 2.92651 46.7759 2.92651H53.0291C55.1114 2.92651 57.1113 3.39202 58.9734 4.30997C59.6986 4.667 60.5758 4.36908 60.933 3.64448C61.2902 2.91949 60.9923 2.04231 60.2675 1.68489C57.9993 0.566767 55.5638 0 53.0291 0H46.7759C38.3265 0 31.3157 6.33941 30.4682 14.7463L29.8466 20.9117C29.2672 21.4107 28.8391 22.0754 28.6352 22.8235C28.3547 23.8534 28.5143 24.9655 29.0734 25.8746L29.6166 26.7582C29.8421 27.1248 30.1225 27.438 30.438 27.7002V30.3177C30.438 32.9539 32.5825 35.0986 35.2187 35.0986H35.907L36.0077 36.1773C36.1131 37.3054 36.3562 38.4206 36.7306 39.4919C36.9413 40.0949 37.5071 40.4727 38.1119 40.4727C38.2718 40.4727 38.4348 40.4461 38.5947 40.3903C39.3576 40.1238 39.7599 39.289 39.4932 38.5261C39.197 37.6788 39.0048 36.7972 38.9215 35.9053L38.057 26.6334C41.8219 25.1654 45.8552 24.3969 49.9026 24.3969C53.9499 24.3969 57.9831 25.1654 61.7481 26.6334L60.8836 35.9053C60.3518 41.6087 55.6309 45.9097 49.9028 45.9097C47.1901 45.9097 44.581 44.9131 42.5557 43.1034C41.953 42.5647 41.028 42.617 40.4896 43.2197C39.9511 43.8223 40.0032 44.7473 40.6058 45.2858C41.3747 45.9729 42.2113 46.5655 43.0973 47.061V51.2155C42.3321 51.2393 41.5712 51.4972 40.9227 51.9978L39.4963 53.0996C38.6755 53.7333 38.1876 54.6645 38.1074 55.6554L28.5051 60.4954C24.7229 62.4018 22.3735 66.2174 22.3735 70.4528V70.8551H21.8838C19.5594 70.8551 17.6684 72.746 17.6684 75.0702V80.1758C16.1884 80.7531 15.1353 82.1906 15.1353 83.8724V91.1649C15.1353 92.8466 16.1884 94.2841 17.6684 94.8614V98.5368C17.6684 99.3451 18.3234 100 19.1317 100C19.94 100 20.5949 99.3451 20.5949 98.5368V95.0895C23.7382 94.7202 26.1852 92.0417 26.1852 88.8008V86.2364C26.1852 82.9956 23.738 80.3171 20.5949 79.9478V75.0702C20.5949 74.3595 21.1732 73.7816 21.8838 73.7816H43.0969V79.963C43.0969 80.6351 43.4182 81.2768 43.9565 81.6795C44.4952 82.082 45.2014 82.209 45.8462 82.019L50.0001 80.7947L54.154 82.019C54.3513 82.0771 54.5544 82.1054 54.7565 82.1054C55.2154 82.1054 55.6699 81.9589 56.0438 81.6793C56.582 81.2768 56.9034 80.6349 56.9034 79.9628V73.7814H62.3116C63.1199 73.7814 63.7748 73.1264 63.7748 72.3182C63.7748 71.5098 63.1199 70.8549 62.3116 70.8549H25.2998V70.4526C25.2998 67.3287 27.0327 64.5145 29.8222 63.1084L38.702 58.6326L39.9294 63.063C40.1567 63.884 40.7764 64.5309 41.5868 64.7935C41.8432 64.8768 42.1067 64.9174 42.3686 64.9174C42.9336 64.9174 43.4894 64.7274 43.9448 64.3639L50.0001 59.5279L56.0557 64.3641C56.5108 64.7274 57.0667 64.9174 57.6317 64.9174C57.8933 64.9174 58.1569 64.8768 58.4135 64.7935C59.2239 64.5309 59.8435 63.884 60.0708 63.063L61.2982 58.6326L70.178 63.1084C72.9676 64.5145 74.7005 67.3287 74.7005 70.4526V70.8549H68.5476C67.7393 70.8549 67.0843 71.5098 67.0843 72.3182C67.0843 73.1264 67.7393 73.7814 68.5476 73.7814H77.9216C78.6323 73.7814 79.2104 74.3595 79.2104 75.07V79.9725C76.1616 80.4275 73.8153 83.0627 73.8153 86.2362V88.8007C73.8153 91.9742 76.1616 94.6096 79.2104 95.0644V98.3415C79.2104 99.1498 79.8653 99.8047 80.6737 99.8047C81.482 99.8047 82.1369 99.1498 82.1369 98.3415V94.9327C83.7192 94.41 84.8652 92.9196 84.8652 91.1647V83.8722C84.8652 82.1173 83.719 80.6269 82.1369 80.1042ZM35.6343 32.1717H35.2187C34.1964 32.1717 33.3645 31.3398 33.3645 30.3173V28.5731C33.8253 28.52 34.283 28.3846 34.7148 28.1567C34.8869 28.066 35.0615 27.98 35.2351 27.8924L35.6343 32.1717ZM33.3493 25.5685C32.913 25.7982 32.3691 25.647 32.1096 25.2253L31.5664 24.3417C31.4271 24.1154 31.3891 23.8495 31.4589 23.5927C31.4987 23.4466 31.6117 23.177 31.9209 23.0131C37.4378 20.0893 43.6556 18.5439 49.9026 18.5439C56.1495 18.5439 62.3674 20.0893 67.8842 23.0131C68.1935 23.177 68.3064 23.4466 68.3462 23.5927C68.4161 23.8493 68.378 24.1154 68.2387 24.3419L67.6956 25.2251C67.4359 25.6473 66.8913 25.7978 66.4559 25.5687C61.3745 22.8876 55.6504 21.4704 49.9024 21.4704C44.1543 21.4704 38.4305 22.8876 33.3493 25.5685ZM65.0906 28.1569C65.5832 28.4168 66.1094 28.5584 66.6358 28.592V30.3173C66.6358 31.3398 65.8039 32.1717 64.7815 32.1717H64.1709L64.5699 27.8924C64.7437 27.9802 64.9183 28.066 65.0906 28.1569ZM23.2585 86.2364V88.8008C23.2585 90.6797 21.73 92.2081 19.8514 92.2081H19.1046C18.5294 92.2081 18.0614 91.7402 18.0614 91.1649V83.8724C18.0614 83.2972 18.5292 82.8292 19.1046 82.8292H19.8514C21.73 82.8292 23.2585 84.3576 23.2585 86.2364ZM53.9769 78.9153L50.6057 77.9218C50.2095 77.8052 49.7906 77.8052 49.3943 77.9218L46.0236 78.9153V73.7814H53.9771V78.9153H53.9769ZM49.9026 48.8362C51.2977 48.8362 52.6683 48.6257 53.9769 48.2265V52.4313L50.0001 55.7494L46.0234 52.4313V48.2845C47.2738 48.6468 48.5782 48.8362 49.9026 48.8362ZM42.5888 61.7016L41.0462 56.1328C40.9724 55.8663 41.0663 55.5846 41.2852 55.4156L42.7114 54.3141C42.8602 54.1992 43.036 54.1422 43.2114 54.1422C43.3971 54.1422 43.5823 54.206 43.7351 54.3332L47.6866 57.6304L42.5888 61.7016ZM57.4114 61.7016L52.3138 57.6306L56.2654 54.3334C56.5623 54.0858 56.9836 54.078 57.2887 54.3139L58.7153 55.4156C58.934 55.5846 59.0278 55.8663 58.9541 56.1328L58.9535 56.1351C58.9523 56.139 58.9513 56.1429 58.9502 56.1468L57.4114 61.7016ZM76.7416 88.8007V86.2364C76.7416 84.3576 78.27 82.8292 80.1486 82.8292H80.8955C81.4706 82.8292 81.9387 83.2971 81.9387 83.8724V91.1649C81.9387 91.74 81.4708 92.2081 80.8955 92.2081H80.1486C78.27 92.2079 76.7416 90.6795 76.7416 88.8007Z" fill="#024999"/>
<path d="M46.5084 88.004H32.2742C30.6853 88.004 29.3926 89.2968 29.3926 90.8857V98.3416C29.3926 99.1499 30.0475 99.8049 30.8558 99.8049C31.6641 99.8049 32.3191 99.1499 32.3191 98.3416V90.9305H46.4633V98.3414C46.4633 99.1497 47.1183 99.8047 47.9266 99.8047C48.7349 99.8047 49.3898 99.1497 49.3898 98.3414V90.8857C49.39 89.2968 48.0973 88.004 46.5084 88.004Z" fill="#024999"/>
<path d="M68.9505 85.5629H55.9624C54.528 85.5629 53.3613 86.7296 53.3613 88.164V92.1642C53.3613 93.5985 54.528 94.7652 55.9624 94.7652H68.9505C70.3848 94.7652 71.5515 93.5985 71.5515 92.1642V88.164C71.5515 86.7296 70.3846 85.5629 68.9505 85.5629ZM68.625 91.8387H56.2878V88.4894H68.625V91.8387Z" fill="#024999"/>
</g>
<defs>
<clipPath id="clip0">
<rect width="100" height="100" fill="white"/>
</clipPath>
</defs>
</svg>
