<svg width="100" height="100" viewBox="0 0 100 100" fill="none" xmlns="http://www.w3.org/2000/svg">
<g clip-path="url(#clip0)">
<path d="M97.2823 49.8331H93.3956V34.0448C93.3956 33.2367 92.7406 32.582 91.9328 32.582C91.1249 32.582 90.47 33.2367 90.47 34.0448V49.8331H87.5444V23.2154C87.5444 22.4073 86.8894 21.7526 86.0816 21.7526H59.3802C58.7711 21.7526 58.2258 22.1302 58.0111 22.7001L43.4071 61.5081L42.1518 60.3679C41.9394 60.175 41.6761 60.0512 41.396 60.0071V58.5457L55.8003 20.2689C56.1248 19.4065 56.9621 18.827 57.8839 18.827H88.244C89.4716 18.827 90.4702 19.8256 90.4702 21.0532V27.8107C90.4702 28.6188 91.1251 29.2735 91.933 29.2735C92.7408 29.2735 93.3958 28.6188 93.3958 27.8107V21.0532C93.3958 18.2126 91.0847 15.9014 88.244 15.9014H77.5839L76.7719 8.88309C76.6132 7.50767 75.4492 6.47064 74.0646 6.47064H68.9506C67.5661 6.47064 66.4023 7.50767 66.2433 8.88289L65.4314 15.9014H57.8839C55.7507 15.9014 53.813 17.2427 53.0621 19.2385L41.3962 50.2389V16.1027C41.3962 14.5174 40.1064 13.2278 38.5211 13.2278H35.7227C34.1374 13.2278 32.8476 14.5174 32.8476 16.1027V21.7647C32.7684 21.7586 32.6891 21.7526 32.6083 21.7526H6.08875C4.34373 21.7526 2.92384 23.1723 2.92384 24.9175V32.3641C2.92384 33.1722 3.57878 33.8269 4.38664 33.8269C5.19449 33.8269 5.84944 33.1722 5.84944 32.3641V24.9175C5.84944 24.7855 5.95671 24.6782 6.08875 24.6782H14.1181V32.5361C14.1181 33.2722 14.4784 33.9636 15.0816 34.3855C15.6849 34.8076 16.4578 34.908 17.1498 34.6556L19.3483 33.8515L21.5472 34.6556C21.7986 34.7475 22.0606 34.7926 22.3213 34.7926C22.7781 34.7926 23.231 34.6541 23.615 34.3855C24.2183 33.9638 24.5785 33.2724 24.5785 32.5361V24.6782H32.6079C32.74 24.6782 32.8472 24.7855 32.8472 24.9175V45.7614H5.84944V38.598C5.84944 37.7899 5.19449 37.1352 4.38664 37.1352C3.57878 37.1352 2.92384 37.7899 2.92384 38.598V69.77H2.88327C1.29331 69.77 0 71.0635 0 72.6535V75.3881C0 76.9779 1.29331 78.2714 2.88327 78.2714H32.8476V80.4145C32.8476 81.8906 34.0485 83.0916 35.5247 83.0916H36.2115C36.0808 83.6863 36.0098 84.3032 36.0098 84.9367C36.0098 89.6748 39.8646 93.5298 44.6029 93.5298C49.3412 93.5298 53.1959 89.6748 53.1959 84.9367C53.1959 84.3032 53.1249 83.6863 52.9942 83.0916H69.3544C70.3889 89.0121 75.5627 93.5278 81.7747 93.5278C87.9867 93.5278 93.1607 89.0123 94.195 83.0916H97.422C98.8434 83.0916 99.9998 81.9352 99.9998 80.5138V52.5509C100 51.0522 98.7808 49.8331 97.2823 49.8331ZM69.1287 9.39624H73.8859L74.6386 15.9016H68.3763L69.1287 9.39624ZM21.6533 31.5793L20.1234 31.0199C19.8736 30.9284 19.6111 30.8828 19.3485 30.8828C19.086 30.8828 18.8233 30.9284 18.5734 31.0199L17.0437 31.5793V24.6782H21.6531V31.5793H21.6533ZM97.0744 64.9993H92.4822V58.4136H97.0744V64.9993ZM60.3927 24.6782H84.6186V49.8331H75.7138C74.9879 49.8331 74.3053 50.1157 73.7919 50.629L73.2686 51.1523V43.1231C73.2686 41.5719 72.0067 40.31 70.4556 40.31H65.6196C64.0684 40.31 62.8065 41.5719 62.8065 43.1231V53.5813H59.8261C58.3951 53.5813 57.1808 54.5245 56.7708 55.8219L50.1278 51.9553L60.3927 24.6782ZM62.3265 62.0944L61.3068 58.8989C61.1966 58.5537 60.9622 58.2617 60.6492 58.0793L59.548 57.4384V56.7852C59.548 56.6318 59.6728 56.5069 59.8263 56.5069H64.2695C65.0774 56.5069 65.7323 55.8522 65.7323 55.0441V43.2356H70.3432V54.0777L62.3265 62.0944ZM49.0829 54.7325L58.691 60.3248L59.9985 64.4226L57.2455 67.1756H49.6464L45.7368 63.6243L49.0829 54.7325ZM45.2951 67.1756H35.773V62.9136H40.603L45.2951 67.1756ZM35.7732 16.1534H38.4704V59.988H35.7732V16.1534ZM21.6533 48.687V55.5881L20.1221 55.0281C19.8728 54.9372 19.6109 54.892 19.3489 54.892C19.0864 54.892 18.8239 54.9374 18.5734 55.0287L17.0437 55.5881V48.687H21.6533ZM5.84944 48.687H14.1181V56.545C14.1181 57.281 14.4784 57.9725 15.0816 58.3943C15.6849 58.8164 16.4578 58.917 17.1498 58.6645L19.3483 57.8603L21.5472 58.6645C21.7986 58.7563 22.0606 58.8014 22.3213 58.8014C22.7781 58.8014 23.231 58.6629 23.615 58.3943C24.2183 57.9726 24.5785 57.2812 24.5785 56.545V48.687H32.8472V69.7702H5.84944V48.687ZM2.9256 75.3456V72.6956H4.38664H32.8474V75.3456H2.9256ZM44.6029 90.604C41.4779 90.604 38.9354 88.0616 38.9354 84.9365C38.9354 81.8114 41.4777 79.269 44.6029 79.269C47.728 79.269 50.2703 81.8114 50.2703 84.9365C50.2703 88.0616 47.7278 90.604 44.6029 90.604ZM94.3628 80.1658C93.9733 73.5592 88.4772 68.3033 81.7747 68.3033C81.2266 68.3033 80.6583 68.3421 80.0855 68.419C79.2848 68.5263 78.7225 69.2621 78.8298 70.063C78.9369 70.8636 79.6708 71.4255 80.4738 71.3186C80.9183 71.2589 81.356 71.2289 81.7747 71.2289C87.1159 71.2289 91.4614 75.5742 91.4614 80.9156C91.4614 86.2567 87.1161 90.602 81.7747 90.602C76.4333 90.602 72.0881 86.2567 72.0881 80.9156C72.0881 78.0729 73.3328 75.3831 75.5034 73.5362C76.1188 73.0126 76.1931 72.0894 75.6696 71.4743C75.1461 70.8591 74.223 70.7846 73.6076 71.3081C70.9744 73.5489 69.3893 76.7441 69.1863 80.1658H51.7458C50.2026 77.8628 47.5772 76.3434 44.6029 76.3434C41.6285 76.3434 39.0031 77.8628 37.4599 80.1658H35.7732V70.1012H57.8515C58.2395 70.1012 58.6116 69.9471 58.8858 69.6729L62.7182 65.8407C62.7182 65.8405 62.7183 65.8406 62.7185 65.8404L75.8001 52.7588H97.0746V55.4884H92.2829C90.7797 55.4884 89.5568 56.7113 89.5568 58.2145V65.1993C89.5568 66.7024 90.7797 67.9253 92.2829 67.9253H97.0746V80.1662H94.3628V80.1658Z" fill="#024999"/>
<path d="M44.6029 83.4167C43.7951 83.4167 43.1401 84.0715 43.1401 84.8795V85.5216C43.1401 86.3297 43.7951 86.9844 44.6029 86.9844C45.4108 86.9844 46.0657 86.3297 46.0657 85.5216V84.8795C46.0657 84.0717 45.4108 83.4167 44.6029 83.4167Z" fill="#024999"/>
<path d="M76.0054 80.9155C76.0054 84.097 78.5935 86.685 81.7748 86.685C84.9561 86.685 87.5443 84.0968 87.5443 80.9155C87.5443 77.7342 84.9561 75.1461 81.7748 75.1461C78.5935 75.1461 76.0054 77.734 76.0054 80.9155ZM81.7748 78.0717C83.343 78.0717 84.6187 79.3474 84.6187 80.9155C84.6187 82.4836 83.343 83.7594 81.7748 83.7594C80.2067 83.7594 78.931 82.4836 78.931 80.9155C78.931 79.3474 80.2067 78.0717 81.7748 78.0717Z" fill="#024999"/>
</g>
<defs>
<clipPath id="clip0">
<rect width="100" height="100" fill="white"/>
</clipPath>
</defs>
</svg>
