<svg width="120" height="121" viewBox="0 0 120 121" fill="none" xmlns="http://www.w3.org/2000/svg">
<g clip-path="url(#clip0)">
<path d="M33.5908 37.3638H86.4103C87.3811 37.3638 88.1681 36.5767 88.1681 35.606C88.1681 34.6352 87.3811 33.8481 86.4103 33.8481H33.5908C32.62 33.8481 31.833 34.6352 31.833 35.606C31.833 36.5767 32.62 37.3638 33.5908 37.3638Z" fill="#024999"/>
<path d="M33.5908 74.4787C32.62 74.4787 31.833 75.2657 31.833 76.2365C31.833 77.2073 32.62 77.9943 33.5908 77.9943H50.88V87.4725C50.88 89.4665 52.5023 91.0889 54.4964 91.0889H65.505C67.499 91.0889 69.1214 89.4665 69.1214 87.4725V77.9943H86.4105C87.3813 77.9943 88.1683 77.2073 88.1683 76.2365C88.1683 75.2657 87.3813 74.4787 86.4105 74.4787H69.1214V64.4547C69.1214 64.4547 70.3558 64.4507 86.4105 64.4507C87.3813 64.4507 88.1683 63.6637 88.1683 62.6929C88.1683 61.7221 87.3813 60.9351 86.4105 60.9351H74.5242C74.5443 60.1914 74.3355 59.4464 73.9007 58.8063L68.5359 50.9074H86.4105C87.3813 50.9074 88.1683 50.1203 88.1683 49.1496C88.1683 48.1788 87.3813 47.3917 86.4105 47.3917H66.1483L62.9925 42.7453C62.3186 41.7531 61.2002 41.1606 60.0007 41.1606C58.8011 41.1606 57.6829 41.7531 57.0089 42.7453L53.853 47.3917H33.5908C32.62 47.3917 31.833 48.1788 31.833 49.1496C31.833 50.1203 32.62 50.9074 33.5908 50.9074H51.4652L46.1006 58.8063C45.6658 59.4464 45.457 60.1914 45.4771 60.9351H33.5908C32.62 60.9351 31.833 61.7221 31.833 62.6929C31.833 63.6637 32.62 64.4507 33.5908 64.4507C48.0178 64.4507 50.4888 64.4547 50.88 64.4547V74.4787H33.5908ZM49.0033 60.8854C48.975 60.8317 48.9932 60.805 49.0092 60.7816L56.2392 50.136C56.2408 50.1337 56.2425 50.1313 56.2439 50.129L59.917 44.7206C59.9282 44.7039 59.947 44.6763 60.0004 44.6763C60.0539 44.6763 60.0726 44.7039 60.0839 44.7206L63.7579 50.1302C63.7591 50.1318 63.76 50.1335 63.7612 50.1349L70.9921 60.7816C71.0379 60.8493 70.9903 60.9229 70.9425 60.9351H67.3633C66.3925 60.9351 65.6055 61.7221 65.6055 62.6929V62.6948C65.6055 62.6948 65.6055 62.696 65.6055 62.6967V87.4722C65.6055 87.5278 65.5603 87.573 65.5047 87.573H54.4961C54.4406 87.573 54.3954 87.5278 54.3954 87.4722V62.6969C54.3954 62.6962 54.3954 62.6957 54.3954 62.695C54.3954 62.6943 54.3954 62.6939 54.3954 62.6931C54.3954 61.7224 53.6083 60.9353 52.6375 60.9353H49.0584C49.0399 60.9302 49.0209 60.9187 49.0033 60.8854Z" fill="#024999"/>
<path d="M99.8425 21.9137C98.9507 21.0219 79.5498 1.62107 78.8162 0.88748C78.4783 0.549512 78.0163 0.372559 77.5733 0.372559H26.4805C22.7108 0.372559 19.644 3.43936 19.644 7.20904V60.6355C19.644 61.6063 20.4311 62.3933 21.4019 62.3933C22.3726 62.3933 23.1597 61.6063 23.1597 60.6355V7.20904C23.1597 5.37787 24.6494 3.88818 26.4805 3.88818H75.8155V18.0777C75.8155 21.8474 78.8823 24.9142 82.652 24.9142H96.8415V98.0179C96.8415 99.849 95.3519 101.339 93.5207 101.339H85.5793V99.3765C85.5793 96.8549 83.5279 94.8034 81.0062 94.8034H38.995C36.4733 94.8034 34.4219 96.8549 34.4219 99.3765V101.339H26.4805C24.6494 101.339 23.1597 99.8493 23.1597 98.0179V68.8387C23.1597 67.8679 22.3726 67.0808 21.4019 67.0808C20.4311 67.0808 19.644 67.8679 19.644 68.8387V98.0181C19.644 101.788 22.7108 104.855 26.4805 104.855H34.4219V115.799C34.4219 118.321 36.4733 120.373 38.995 120.373H66.0229C66.9937 120.373 67.7807 119.586 67.7807 118.615C67.7807 117.644 66.9937 116.857 66.0229 116.857H38.995C38.4119 116.857 37.9375 116.383 37.9375 115.799C37.9375 113.804 37.9375 101.136 37.9375 99.3768C37.9375 98.7937 38.4119 98.3193 38.995 98.3193H81.0062C81.5894 98.3193 82.0637 98.7937 82.0637 99.3768V115.799C82.0637 116.383 81.5894 116.857 81.0062 116.857H74.226C73.2552 116.857 72.4682 117.644 72.4682 118.615C72.4682 119.586 73.2552 120.373 74.226 120.373H81.0062C83.5279 120.373 85.5793 118.321 85.5793 115.799V104.855H93.5207C97.2904 104.855 100.357 101.788 100.357 98.0181V23.1566C100.357 22.675 100.155 22.2262 99.8425 21.9137ZM82.652 21.3988C80.8208 21.3988 79.3312 19.9091 79.3312 18.0779V6.37397C84.3311 11.3739 89.3383 16.3811 94.3558 21.3986H82.652V21.3988Z" fill="#024999"/>
</g>
<defs>
<clipPath id="clip0">
<rect width="120" height="120" fill="white" transform="translate(0 0.372559)"/>
</clipPath>
</defs>
</svg>
