<svg width="100" height="100" viewBox="0 0 100 100" fill="none" xmlns="http://www.w3.org/2000/svg">
<g clip-path="url(#clip0)">
<path d="M77.0473 70.457C76.2371 70.457 75.5806 71.1135 75.5806 71.9237V93.3607C75.5806 95.404 73.918 97.0665 71.8747 97.0665H9.38176C7.33826 97.0665 5.67573 95.404 5.67573 93.3607V33.3534C5.67573 32.5431 5.019 31.8866 4.20896 31.8866C3.39891 31.8866 2.74219 32.5431 2.74219 33.3534V93.3607C2.74219 97.0217 5.72071 100 9.38176 100H71.8747C75.5358 100 78.5141 97.0217 78.5141 93.3607V71.9237C78.5141 71.1135 77.8576 70.457 77.0473 70.457Z" fill="#024999"/>
<path d="M4.20896 28.5694C5.019 28.5694 5.67573 27.9128 5.67573 27.1026V14.5163C5.67573 12.4728 7.33826 10.8103 9.38176 10.8103H19.4436C20.2536 10.8103 20.9104 10.1538 20.9104 9.34354C20.9104 8.5333 20.2536 7.87677 19.4436 7.87677H9.38176C5.72071 7.87677 2.74219 10.8553 2.74219 14.5163V27.1026C2.74219 27.9128 3.39891 28.5694 4.20896 28.5694Z" fill="#024999"/>
<path d="M61.813 10.8101H71.8748C73.9181 10.8101 75.5806 12.4726 75.5806 14.5161V23.8342C75.5806 24.6445 76.2372 25.301 77.0474 25.301C77.8576 25.301 78.5142 24.6445 78.5142 23.8342V14.5163C78.5142 10.8553 75.5359 7.87677 71.8748 7.87677H61.813C61.0027 7.87677 60.3462 8.5333 60.3462 9.34354C60.3462 10.1538 61.0027 10.8101 61.813 10.8101Z" fill="#024999"/>
<path d="M23.9595 92.6663C23.9595 93.4766 24.6162 94.1331 25.4262 94.1331H71.18C71.9903 94.1331 72.6468 93.4766 72.6468 92.6663V81.5696C72.6468 80.7593 71.9903 80.1028 71.18 80.1028C70.3698 80.1028 69.7133 80.7593 69.7133 81.5696V91.1996H25.4262C24.6162 91.1996 23.9595 91.8563 23.9595 92.6663Z" fill="#024999"/>
<path d="M19.7535 13.7437H10.0761C9.2661 13.7437 8.60938 14.4002 8.60938 15.2104V92.6664C8.60938 93.4766 9.2661 94.1332 10.0761 94.1332H19.1756C19.9856 94.1332 20.6424 93.4766 20.6424 92.6664C20.6424 91.8562 19.9856 91.1996 19.1756 91.1996H11.5429V16.6772H19.7535C20.5635 16.6772 21.2203 16.0207 21.2203 15.2104C21.2203 14.4002 20.5635 13.7437 19.7535 13.7437Z" fill="#024999"/>
<path d="M61.5029 16.6772H69.7135V37.0447C69.7135 37.855 70.37 38.5115 71.1803 38.5115C71.9905 38.5115 72.647 37.855 72.647 37.0447V15.2104C72.647 14.4002 71.9905 13.7437 71.1803 13.7437H61.5029C60.6927 13.7437 60.0361 14.4002 60.0361 15.2104C60.0361 16.0207 60.6927 16.6772 61.5029 16.6772Z" fill="#024999"/>
<path d="M28.619 17.6167H52.6382C55.2721 17.6167 57.415 15.4738 57.415 12.8397V9.43876C57.415 6.80464 55.2721 4.66178 52.6382 4.66178H51.2401L50.8079 2.96326C50.3635 1.2184 48.796 0 46.9956 0H34.2611C32.4607 0 30.8932 1.2184 30.4491 2.96307L30.0167 4.66178H28.6188C25.9848 4.66178 23.8418 6.80464 23.8418 9.43876V12.8399C23.842 15.4738 25.9848 17.6167 28.619 17.6167ZM26.7755 9.43876C26.7755 8.42238 27.6026 7.59532 28.619 7.59532H31.1573C31.8281 7.59532 32.4132 7.14043 32.5787 6.49055L33.2923 3.68707V3.68687C33.4053 3.24332 33.8037 2.93354 34.2615 2.93354H46.9956C47.4533 2.93354 47.8518 3.24332 47.9649 3.68707L48.6785 6.49055C48.844 7.14043 49.4291 7.59532 50.0999 7.59532H52.6382C53.6546 7.59532 54.4814 8.42238 54.4814 9.43876V12.8399C54.4814 13.8563 53.6546 14.6833 52.6382 14.6833H28.619C27.6026 14.6833 26.7755 13.8563 26.7755 12.8399V9.43876Z" fill="#024999"/>
<path d="M37.1108 10.8101H44.1458C44.9559 10.8101 45.6126 10.1535 45.6126 9.3433C45.6126 8.53305 44.9559 7.87653 44.1458 7.87653H37.1108C36.3008 7.87653 35.644 8.53305 35.644 9.3433C35.644 10.1535 36.3008 10.8101 37.1108 10.8101Z" fill="#024999"/>
<path d="M63.6366 31.3018H17.6196C16.8096 31.3018 16.1528 31.9583 16.1528 32.7686C16.1528 33.5788 16.8096 34.2354 17.6196 34.2354H63.6366C64.4469 34.2354 65.1034 33.5788 65.1034 32.7686C65.1034 31.9583 64.4469 31.3018 63.6366 31.3018Z" fill="#024999"/>
<path d="M63.6369 40.0538H26.8789C26.0688 40.0538 25.4121 40.7103 25.4121 41.5205C25.4121 42.3308 26.0688 42.9873 26.8789 42.9873H63.6371C64.4473 42.9873 65.1039 42.3308 65.1039 41.5205C65.1039 40.7103 64.4471 40.0538 63.6369 40.0538Z" fill="#024999"/>
<path d="M65.1034 50.2724C65.1034 49.4622 64.4469 48.8057 63.6366 48.8057H17.6196C16.8096 48.8057 16.1528 49.4622 16.1528 50.2724C16.1528 51.0827 16.8096 51.7392 17.6196 51.7392H63.6366C64.4469 51.7392 65.1034 51.0825 65.1034 50.2724Z" fill="#024999"/>
<path d="M17.6196 42.9873H21.3505C22.1605 42.9873 22.8172 42.3308 22.8172 41.5205C22.8172 40.7103 22.1605 40.0538 21.3505 40.0538H17.6196C16.8096 40.0538 16.1528 40.7103 16.1528 41.5205C16.1528 42.3308 16.8096 42.9873 17.6196 42.9873Z" fill="#024999"/>
<path d="M56.4633 79.5994H41.91L41.8691 79.2967C41.6947 78.0069 40.8089 76.984 39.5575 76.6269C38.306 76.2702 37.0141 76.6717 36.1855 77.675L32.7274 81.8627C32.6922 81.9053 32.5988 82.0186 32.4108 81.9439C32.2229 81.8692 32.2328 81.7225 32.2366 81.6673L32.7681 73.7309C32.8598 72.3629 32.1089 71.1203 30.8551 70.5655C29.6013 70.011 28.1767 70.2907 27.2259 71.2781L17.1099 81.7857C16.548 82.3692 16.5656 83.2978 17.1492 83.8597C17.7327 84.4213 18.6613 84.4035 19.223 83.8204L29.339 73.3126C29.374 73.2763 29.4804 73.165 29.6676 73.2481C29.8543 73.3308 29.8442 73.4841 29.8406 73.5348L29.3091 81.4714C29.2142 82.8891 30.0059 84.1446 31.3262 84.6697C31.7255 84.8285 32.1353 84.9056 32.5379 84.9056C33.4671 84.9056 34.3579 84.4949 34.989 83.7306L38.4471 79.5429C38.4772 79.5065 38.5685 79.3954 38.7523 79.448C38.936 79.5006 38.9553 79.643 38.9616 79.6897L39.0238 80.1497C39.2074 81.5083 40.3801 82.5331 41.7512 82.5331H56.4629C57.2731 82.5331 57.9297 81.8766 57.9297 81.0664C57.9297 80.2561 57.2733 79.5994 56.4633 79.5994Z" fill="#024999"/>
<path d="M97.0635 29.3033C96.786 28.5825 96.2444 28.0128 95.5384 27.6995L92.478 26.3403L95.4651 19.6144C95.9608 18.4981 95.9923 17.2555 95.5535 16.1153C95.1148 14.9751 94.2584 14.0742 93.1419 13.5784L91.7045 12.94C89.4003 11.9164 86.6924 12.9586 85.6688 15.2632L60.5757 71.7624C60.4109 72.1332 60.3379 72.5407 60.3633 72.9456L60.449 80.0367C60.46 80.958 60.9899 81.7628 61.8321 82.1369C62.1411 82.2742 62.4647 82.3413 62.7851 82.3413C63.3378 82.3413 63.8803 82.1412 64.3177 81.7552L69.6367 77.0639C69.9543 76.811 70.2077 76.4834 70.3716 76.1136L77.1584 60.8326C77.4874 60.0924 77.1537 59.2256 76.4131 58.8969C75.6733 58.5683 74.8063 58.9017 74.4774 59.6422L68.286 73.5825L63.8517 71.6132L81.8394 31.1129L86.2737 33.0823L77.0159 53.927C76.6869 54.6673 77.0206 55.534 77.7612 55.8628C78.5012 56.1917 79.3682 55.8581 79.6969 55.1175L91.2871 29.0211L94.3093 30.3633L87.5907 45.4912C87.2617 46.2314 87.5954 47.0982 88.336 47.4269C88.5294 47.5128 88.7314 47.5534 88.9305 47.5534C89.4926 47.5534 90.0288 47.2284 90.2717 46.6816L97.0071 31.5158C97.321 30.8102 97.341 30.0242 97.0635 29.3033ZM88.3499 16.454C88.7168 15.6278 89.688 15.2548 90.5139 15.6213L91.9513 16.2596C92.3514 16.4374 92.6585 16.7605 92.8159 17.169C92.9731 17.5778 92.9618 18.0233 92.784 18.4236L89.7969 25.1494L85.3628 23.18L88.3499 16.454ZM63.3663 78.6828L63.3168 74.585L66.4397 75.972L63.3663 78.6828ZM87.4645 30.4011L83.0302 28.4317L84.1719 25.8609L88.6063 27.8303L87.4645 30.4011Z" fill="#024999"/>
</g>
<defs>
<clipPath id="clip0">
<rect width="100" height="100" fill="white"/>
</clipPath>
</defs>
</svg>
