<svg width="100" height="100" viewBox="0 0 100 100" fill="none" xmlns="http://www.w3.org/2000/svg">
<g clip-path="url(#clip0)">
<path d="M76.7179 24.0527C76.8641 24.7411 77.4717 25.213 78.1486 25.213C78.2493 25.213 78.3513 25.2027 78.4536 25.1808C79.2445 25.0131 79.7496 24.236 79.5819 23.4451C78.7192 19.3779 76.7441 15.6235 73.8701 12.5879C73.3143 12.0009 72.3878 11.9755 71.8007 12.5313C71.2136 13.0872 71.1883 14.0137 71.7441 14.6008C74.2472 17.2448 75.9671 20.5132 76.7179 24.0527Z" fill="#024999"/>
<path d="M46.8452 11.2518C47.0932 11.2518 47.3446 11.1888 47.5749 11.056C50.5529 9.33949 53.955 8.43212 57.4133 8.43212C60.84 8.43212 64.2153 9.32427 67.1745 11.0123C67.8768 11.4128 68.7707 11.1683 69.1712 10.466C69.5717 9.7638 69.3271 8.8699 68.6249 8.4694C65.2245 6.52976 61.3476 5.5047 57.4133 5.5047C53.4427 5.5047 49.5351 6.54732 46.1129 8.51976C45.4126 8.92357 45.1719 9.81864 45.5758 10.5191C45.8467 10.9889 46.3389 11.2518 46.8452 11.2518Z" fill="#024999"/>
<path d="M86.2884 79.7159L87.204 76.9823C87.5613 75.9156 87.3822 74.7337 86.725 73.8206C86.0679 72.9076 85.004 72.3625 83.879 72.3625H82.133C80.9453 70.9114 79.6121 69.6162 78.1461 68.4844L78.6067 67.9029C84.1556 60.8993 85.7691 51.6611 82.9232 43.1905C82.6656 42.4241 81.8351 42.0117 81.0695 42.2691C80.3032 42.5265 79.8906 43.3564 80.148 44.1229C82.6771 51.6506 81.2432 59.8608 76.3121 66.0849L75.7201 66.8322C75.3581 66.6163 74.9898 66.4087 74.6148 66.2102L72.6285 65.1588C72.7222 64.4292 72.498 63.7075 71.9962 63.1614L67.3895 58.1483C66.8022 57.5091 65.936 57.23 65.1014 57.3862V51.9982C68.8892 49.8243 71.6786 46.101 72.5909 41.6959H74.7721V48.4194C74.7721 49.3758 74.4849 50.308 73.961 51.0998C73.4701 50.8898 72.9305 50.7729 72.3637 50.7729C70.1172 50.7729 68.2894 52.6005 68.2894 54.8469C68.2894 57.0934 70.117 58.9212 72.3637 58.9212C74.6102 58.9212 76.4378 57.0936 76.4378 54.8469C76.4378 54.2519 76.3064 53.688 76.0761 53.1778C77.1252 51.8186 77.6996 50.1417 77.6996 48.4194V41.0159C79.3921 40.0814 80.5415 38.279 80.5415 36.2125V33.1262C80.5415 30.1025 78.0815 27.6425 75.0579 27.6425H72.6834C72.4232 26.8283 71.9491 26.0882 71.298 25.5089C70.272 24.5959 68.9017 24.1641 67.537 24.3234L61.5239 25.0272C58.6646 25.3619 55.816 24.6021 53.5032 22.8879L51.4135 21.3392C50.444 20.6207 49.2094 20.3424 48.0256 20.5762C46.8419 20.8097 45.8053 21.5359 45.1816 22.5686L44.3193 23.9961C42.7442 26.6032 41.9118 29.5912 41.9118 32.6372V38.5479C41.9118 44.2978 45.0611 49.3227 49.7231 51.9982V57.3862C48.8883 57.2298 48.0223 57.5093 47.435 58.1483L42.8283 63.1616C42.3265 63.7077 42.1025 64.4294 42.1962 65.159L40.2099 66.2104C39.8349 66.4089 39.4667 66.6165 39.1046 66.8324L38.5126 66.0851C35.7964 62.6566 34.1001 58.5474 33.6067 54.2013C33.1135 49.8553 33.8458 45.4704 35.7246 41.5204L37.4027 37.9922C37.6872 37.3938 37.8313 36.7275 37.819 36.0651L37.6808 28.5276C37.6755 28.2396 37.6771 27.9406 37.6859 27.6136C37.7077 26.8054 37.0703 26.1327 36.2621 26.111C35.4585 26.0915 34.7811 26.7266 34.7594 27.5348C34.7493 27.9066 34.7475 28.2491 34.7538 28.5817L34.892 36.119C34.8959 36.3305 34.8498 36.5437 34.7588 36.7349L33.0807 40.2631C30.9668 44.7074 30.1428 49.6414 30.6979 54.5315C31.2529 59.4216 33.1617 64.0455 36.2178 67.9029L36.6784 68.4844C35.2124 69.6162 33.8792 70.9114 32.6916 72.3625H30.9453C29.8203 72.3625 28.7565 72.9076 28.0993 73.8208C27.4421 74.734 27.2632 75.9158 27.6205 76.9825L28.5361 79.7161C27.5893 82.3732 27.1094 85.146 27.1094 87.9669V98.0344C27.1094 98.8428 27.7648 99.4982 28.5732 99.4982C29.3816 99.4982 30.037 98.8428 30.037 98.0344V87.9669C30.037 86.9245 30.1131 85.8898 30.2612 84.8665L34.5287 97.6075C35.0081 99.0387 36.3442 100 37.8535 100H76.97C78.4793 100 79.8155 99.0387 80.2948 97.6075L84.5627 84.8652C84.7108 85.8888 84.7864 86.9241 84.7864 87.9669V98.0344C84.7864 98.8428 85.4418 99.4982 86.2502 99.4982C87.0586 99.4982 87.714 98.8428 87.714 98.0344V87.9669C87.7151 85.1458 87.2352 82.373 86.2884 79.7159ZM69.4499 64.7167L64.0448 67.4808L58.8766 65.2378V62.6627L65.4305 60.3427L69.4499 64.7167ZM72.3643 55.993C71.7321 55.993 71.2176 55.4787 71.2176 54.8463C71.2176 54.2142 71.7319 53.6999 72.3643 53.6999C72.9965 53.6999 73.5107 54.2142 73.5107 54.8463C73.5107 55.4787 72.9965 55.993 72.3643 55.993ZM77.6145 33.1258V36.2121C77.6145 37.6214 76.4678 38.7679 75.0585 38.7679H72.9076C72.9086 38.6943 72.9133 38.6215 72.9133 38.5475V30.5698H75.0587C76.4678 30.5698 77.6145 31.7162 77.6145 33.1258ZM44.8402 38.5475V32.637C44.8402 30.1246 45.5268 27.6601 46.8259 25.5097L47.6882 24.0822C47.8896 23.7488 48.2111 23.5236 48.5932 23.4482C48.6834 23.4305 48.7735 23.4217 48.8629 23.4217C49.1522 23.4217 49.4321 23.5138 49.6712 23.691L51.7609 25.2397C54.6744 27.3993 58.2631 28.3565 61.8653 27.9349L67.8782 27.2311C68.421 27.1671 68.9444 27.3326 69.3527 27.6958C69.7608 28.059 69.9857 28.5599 69.9857 29.1061V38.5477C69.9857 45.4803 64.3455 51.1205 57.4129 51.1205C50.4803 51.1205 44.8402 45.4801 44.8402 38.5475ZM57.4127 54.0479C59.0735 54.0479 60.6729 53.7824 62.174 53.2967V58.3897L57.4127 60.0753L52.6515 58.3897V53.2967C54.1527 53.7824 55.752 54.0479 57.4127 54.0479ZM49.3952 60.3427L55.9491 62.6627V65.2378L50.7809 67.4808L45.3758 64.7167L49.3952 60.3427ZM41.5804 68.7974L44.2067 67.4072L50.0631 70.402C50.2719 70.5087 50.5005 70.5624 50.7296 70.5624C50.9277 70.5624 51.1262 70.5222 51.3124 70.4414L55.9489 68.4291V72.3621H36.6673C38.1235 70.9527 39.7662 69.7577 41.5804 68.7974ZM77.5198 96.6775C77.4408 96.9137 77.2202 97.0723 76.971 97.0723H37.8545C37.6055 97.0723 37.3849 96.9137 37.3059 96.6775L30.3975 76.0522C30.3157 75.8077 30.4119 75.6205 30.4765 75.5305C30.5413 75.4406 30.6883 75.2899 30.9463 75.2899H69.245C70.0534 75.2899 70.7088 74.6345 70.7088 73.8261C70.7088 73.0177 70.0534 72.3623 69.245 72.3623H58.8766V68.4293L63.5131 70.4416C63.6993 70.5224 63.8978 70.5626 64.0959 70.5626C64.3248 70.5626 64.5536 70.5089 64.7624 70.4021L70.6188 67.4074L73.2453 68.7974C75.0598 69.7579 76.7032 70.9525 78.1598 72.3623H75.4834C74.6749 72.3623 74.0196 73.0177 74.0196 73.8261C74.0196 74.6345 74.6749 75.2899 75.4834 75.2899H83.8794C84.1374 75.2899 84.2844 75.4406 84.3492 75.5305C84.414 75.6203 84.5102 75.8077 84.4282 76.0522L77.5198 96.6775Z" fill="#024999"/>
<path d="M59.8591 80.6274H54.9666C51.7103 80.6274 49.061 83.2767 49.061 86.533C49.061 89.7894 51.7103 92.4385 54.9666 92.4385H59.8591C63.1156 92.4385 65.7647 89.7892 65.7647 86.533C65.7647 83.2767 63.1156 80.6274 59.8591 80.6274ZM59.8591 89.5111H54.9666C53.3246 89.5111 51.9887 88.1752 51.9887 86.5332C51.9887 84.8912 53.3246 83.5552 54.9666 83.5552H59.8591C61.5013 83.5552 62.8371 84.8912 62.8371 86.5332C62.8371 88.1752 61.5013 89.5111 59.8591 89.5111Z" fill="#024999"/>
<path d="M38.5233 23.765C38.9627 24.2417 39.5642 24.4969 40.1823 24.4969C40.4599 24.4969 40.7407 24.4454 41.0118 24.3396C41.8868 23.9979 42.4522 23.1699 42.4522 22.2306V7.43615C42.4522 3.33592 39.1165 0 35.0161 0H26.0808C25.2724 0 24.617 0.655396 24.617 1.46381C24.617 2.27222 25.2724 2.92762 26.0808 2.92762H35.0161C37.502 2.92762 39.5246 4.95002 39.5246 7.43615V20.5318L39.2268 20.2086C38.9496 19.9078 38.5595 19.7368 38.1504 19.7368H19.7208C17.2349 19.7368 15.2123 17.7144 15.2123 15.2283V7.43615C15.2123 4.95021 17.2347 2.92762 19.7208 2.92762H19.8426C20.651 2.92762 21.3064 2.27222 21.3064 1.46381C21.3064 0.655396 20.651 0 19.8426 0H19.7208C15.6206 0 12.2847 3.33573 12.2847 7.43615V15.2283C12.2847 19.3285 15.6204 22.6644 19.7208 22.6644H37.5088L38.5233 23.765Z" fill="#024999"/>
</g>
<defs>
<clipPath id="clip0">
<rect width="100" height="100" fill="white"/>
</clipPath>
</defs>
</svg>
