<svg width="35" height="35" viewBox="0 0 35 35" fill="none" xmlns="http://www.w3.org/2000/svg">
<path d="M26.5391 11.7813C25.831 12.0939 25.1227 12.289 24.4149 12.3674C25.2143 11.8753 25.7551 11.1799 26.0369 10.2815C25.3055 10.7267 24.5252 11.0313 23.6954 11.1955C22.9643 10.3986 22.066 10 20.9997 10C19.9795 10 19.1097 10.3691 18.3898 11.1074C17.6704 11.8457 17.3107 12.7383 17.3107 13.7851C17.3107 14.0663 17.3411 14.3555 17.402 14.6523C15.8944 14.5742 14.4801 14.1856 13.1589 13.4863C11.8378 12.787 10.7166 11.8553 9.79535 10.6913C9.46031 11.2771 9.29274 11.914 9.29274 12.6014C9.29274 13.2499 9.44119 13.8515 9.7383 14.4063C10.0352 14.9609 10.4351 15.41 10.9376 15.7538C10.3436 15.7304 9.78778 15.5702 9.2701 15.2733V15.3202C9.2701 16.2343 9.54992 17.0369 10.1095 17.7285C10.6692 18.4201 11.3754 18.8554 12.2281 19.0351C11.9083 19.121 11.5846 19.164 11.2573 19.164C11.0441 19.164 10.8118 19.1444 10.5606 19.1057C10.7966 19.8633 11.2306 20.4861 11.8625 20.9748C12.4946 21.463 13.2103 21.7147 14.0098 21.7307C12.6698 22.8086 11.1432 23.3476 9.42995 23.3476C9.10248 23.3476 8.80561 23.3323 8.53906 23.3009C10.2523 24.4336 12.1406 25 14.2041 25C15.5137 25 16.7435 24.7873 17.8928 24.3614C19.0428 23.9358 20.0249 23.3654 20.8397 22.6503C21.6543 21.9356 22.3569 21.1133 22.947 20.1836C23.537 19.2538 23.9766 18.2832 24.2662 17.2715C24.5554 16.2596 24.7001 15.2461 24.7001 14.2303C24.7001 14.0115 24.6963 13.8475 24.6886 13.7381C25.4122 13.1993 26.0289 12.5468 26.5391 11.7813Z" fill="white"/>
<path d="M34.5002 17.5C34.5002 26.8925 26.9458 34.5 17.6351 34.5C8.32442 34.5 0.77002 26.8925 0.77002 17.5C0.77002 8.1075 8.32442 0.5 17.6351 0.5C26.9458 0.5 34.5002 8.1075 34.5002 17.5Z" stroke="white"/>
</svg>
