<svg width="36" height="35" viewBox="0 0 36 35" fill="none" xmlns="http://www.w3.org/2000/svg">
<path d="M22.6615 8.33708L20.263 8.33334C17.5683 8.33334 15.8269 10.072 15.8269 12.7632V14.8056H13.4152C13.2068 14.8056 13.0381 14.97 13.0381 15.1728V18.1321C13.0381 18.3349 13.207 18.4991 13.4152 18.4991H15.8269V25.9663C15.8269 26.1691 15.9956 26.3333 16.204 26.3333H19.3505C19.5589 26.3333 19.7277 26.1689 19.7277 25.9663V18.4991H22.5474C22.7558 18.4991 22.9246 18.3349 22.9246 18.1321L22.9257 15.1728C22.9257 15.0754 22.8859 14.9822 22.8153 14.9133C22.7446 14.8444 22.6484 14.8056 22.5484 14.8056H19.7277V13.0742C19.7277 12.242 19.9314 11.8196 21.0454 11.8196L22.6611 11.819C22.8693 11.819 23.0381 11.6546 23.0381 11.452V8.70411C23.0381 8.50168 22.8695 8.33746 22.6615 8.33708Z" fill="white"/>
<path d="M34.865 17.5C34.865 26.8925 27.3106 34.5 17.9999 34.5C8.68917 34.5 1.13477 26.8925 1.13477 17.5C1.13477 8.1075 8.68917 0.5 17.9999 0.5C27.3106 0.5 34.865 8.1075 34.865 17.5Z" stroke="white"/>
</svg>
