<svg width="113" height="114" viewBox="0 0 113 114" fill="none" xmlns="http://www.w3.org/2000/svg">
<g clip-path="url(#clip0)">
<path d="M27.3041 110.062H20.084C17.9544 110.062 16.2217 108.329 16.2217 106.2V7.54541C16.2217 5.41585 17.9544 3.68311 20.084 3.68311H48.7626C49.6767 3.68311 50.4179 2.94198 50.4179 2.02783C50.4179 1.11368 49.6767 0.372559 48.7626 0.372559H20.084C16.129 0.372559 12.9111 3.59041 12.9111 7.54541V106.2C12.9111 110.155 16.129 113.373 20.084 113.373H27.3041C28.2182 113.373 28.9593 112.631 28.9593 111.717C28.9593 110.803 28.2182 110.062 27.3041 110.062Z" fill="#024999"/>
<path d="M99.6041 23.7002L76.7613 0.857443C76.5455 0.641375 76.244 0.470109 75.9138 0.404561C75.9008 0.391539 75.6121 0.372559 75.591 0.372559H56.4873C55.5732 0.372559 54.8321 1.11368 54.8321 2.02783C54.8321 2.94198 55.5732 3.68311 56.4873 3.68311H73.9357V19.353C73.9357 23.308 77.1535 26.5259 81.1085 26.5259H96.7785V106.2C96.7785 108.329 95.0457 110.062 92.9162 110.062H35.0288C34.1147 110.062 33.3735 110.803 33.3735 111.717C33.3735 112.631 34.1147 113.373 35.0288 113.373H92.9162C96.8712 113.373 100.089 110.155 100.089 106.2V24.8706C100.089 24.453 99.9208 24.0167 99.6041 23.7002ZM81.1085 23.2153C78.979 23.2153 77.2462 21.4826 77.2462 19.353V6.02388L94.4377 23.2153H81.1085Z" fill="#024999"/>
<path d="M85.1914 36.7402H27.8086C26.8944 36.7402 26.1533 37.4814 26.1533 38.3955C26.1533 39.3097 26.8944 40.0508 27.8086 40.0508H85.1914C86.1056 40.0508 86.8467 39.3097 86.8467 38.3955C86.8467 37.4814 86.1056 36.7402 85.1914 36.7402Z" fill="#024999"/>
<path d="M85.1914 51.4541H27.8086C26.8944 51.4541 26.1533 52.1952 26.1533 53.1094C26.1533 54.0235 26.8944 54.7646 27.8086 54.7646H85.1914C86.1056 54.7646 86.8467 54.0235 86.8467 53.1094C86.8467 52.1952 86.1056 51.4541 85.1914 51.4541Z" fill="#024999"/>
<path d="M85.1914 66.1675H27.8086C26.8944 66.1675 26.1533 66.9086 26.1533 67.8228C26.1533 68.7369 26.8944 69.478 27.8086 69.478H85.1914C86.1056 69.478 86.8467 68.7369 86.8467 67.8228C86.8467 66.9086 86.1056 66.1675 85.1914 66.1675Z" fill="#024999"/>
<path d="M85.1914 80.8809H27.8086C26.8944 80.8809 26.1533 81.622 26.1533 82.5361C26.1533 83.4503 26.8944 84.1914 27.8086 84.1914H85.1914C86.1056 84.1914 86.8467 83.4503 86.8467 82.5361C86.8467 81.622 86.1056 80.8809 85.1914 80.8809Z" fill="#024999"/>
</g>
<defs>
<clipPath id="clip0">
<rect width="113" height="113" fill="white" transform="translate(0 0.372559)"/>
</clipPath>
</defs>
</svg>
